<svg width="32" height="32" viewBox="0 0 32 32" fill="none" xmlns="http://www.w3.org/2000/svg">
<rect width="32" height="32" rx="16" fill="#8D97A5" fill-opacity="0.2"/>
<path fill-rule="evenodd" clip-rule="evenodd" d="M21.4685 12.0406C21.859 11.65 21.859 11.0169 21.4685 10.6263C21.078 10.2358 20.4448 10.2358 20.0543 10.6263L16.0473 14.6333L11.8115 10.3975C11.421 10.007 10.7878 10.007 10.3973 10.3975C10.0068 10.788 10.0068 11.4212 10.3973 11.8117L14.6331 16.0475L10.6262 20.0544C10.2357 20.445 10.2357 21.0781 10.6262 21.4686C11.0167 21.8592 11.6499 21.8592 12.0404 21.4686L16.0473 17.4618L19.8254 21.2398C20.2159 21.6303 20.8491 21.6303 21.2396 21.2398C21.6301 20.8493 21.6301 20.2161 21.2396 19.8256L17.4615 16.0475L21.4685 12.0406Z" fill="#737D8C"/>
</svg>
