<svg width="16" height="16" viewBox="0 0 16 16" fill="none" xmlns="http://www.w3.org/2000/svg">
<rect width="16" height="16" rx="8" fill="#FF4B55"/>
<path fill-rule="evenodd" clip-rule="evenodd" d="M11.3294 5.43691C11.5246 5.24165 11.5246 4.92507 11.3294 4.7298C11.1341 4.53454 10.8175 4.53454 10.6222 4.7298L8.02949 7.32256L5.29372 4.58679C5.09846 4.39153 4.78187 4.39153 4.58661 4.58679C4.39135 4.78205 4.39135 5.09864 4.58661 5.2939L7.32238 8.02967L4.72969 10.6224C4.53443 10.8176 4.53443 11.1342 4.72969 11.3295C4.92495 11.5247 5.24153 11.5247 5.43679 11.3295L8.02949 8.73677L10.4792 11.1865C10.6744 11.3817 10.991 11.3817 11.1863 11.1865C11.3815 10.9912 11.3815 10.6746 11.1863 10.4793L8.73659 8.02967L11.3294 5.43691Z" fill="white"/>
</svg>
